{
  "accessors": [
    {
      "bufferView": 2,
      "componentType": 5126,
      "count": 4845,
      "max": [
        2.0009334087371826,
        5.066565036773682,
        1.0000008344650269
      ],
      "min": [
        -1.000000238418579,
        -0.9737167358398438,
        -1.0
      ],
      "type": "VEC3"
    },
    {
      "bufferView": 2,
      "byteOffset": 58140,
      "componentType": 5126,
      "count": 4845,
      "max": [
        1.0,
        1.0,
        1.0
      ],
      "min": [
        -1.0,
        -0.9999423027038574,
        -1.0
      ],
      "type": "VEC3"
    },
    {
      "bufferView": 1,
      "componentType": 5126,
      "count": 4845,
      "max": [
        1.0000001192092896,
        1.0
      ],
      "min": [
        0.0,
        0.0
      ],
      "type": "VEC2"
    },
    {
      "bufferView": 0,
      "componentType": 5125,
      "count": 21699,
      "type": "SCALAR"
    },
    {
      "bufferView": 2,
      "byteOffset": 116280,
      "componentType": 5126,
      "count": 649,
      "max": [
        1.0000004768371582,
        0.19509035348892212,
        1.0000008344650269
      ],
      "min": [
        -1.000000238418579,
        -1.0,
        -1.0
      ],
      "type": "VEC3"
    },
    {
      "bufferView": 2,
      "byteOffset": 124068,
      "componentType": 5126,
      "count": 649,
      "max": [
        1.0,
        0.7306444644927979,
        1.0
      ],
      "min": [
        -1.0,
        -1.0,
        -1.0
      ],
      "type": "VEC3"
    },
    {
      "bufferView": 1,
      "byteOffset": 38760,
      "componentType": 5126,
      "count": 649,
      "max": [
        1.0000001192092896,
        0.5625
      ],
      "min": [
        0.0,
        0.0
      ],
      "type": "VEC2"
    },
    {
      "bufferView": 0,
      "byteOffset": 86796,
      "componentType": 5125,
      "count": 3450,
      "type": "SCALAR"
    }
  ],
  "asset": {
    "extras": {
      "author": "riosstudio (https://sketchfab.com/riosstudio)",
      "license": "CC-BY-4.0 (http://creativecommons.org/licenses/by/4.0/)",
      "source": "https://sketchfab.com/3d-models/bong-glass-for-smoking-weed-50ef251d19cc4e909f8369aae5aa901e",
      "title": "Bong glass for smoking Weed"
    },
    "generator": "Sketchfab-12.68.0",
    "version": "2.0"
  },
  "bufferViews": [
    {
      "buffer": 0,
      "byteLength": 100596,
      "name": "floatBufferViews",
      "target": 34963
    },
    {
      "buffer": 0,
      "byteLength": 43952,
      "byteOffset": 100596,
      "byteStride": 8,
      "name": "floatBufferViews",
      "target": 34962
    },
    {
      "buffer": 0,
      "byteLength": 131856,
      "byteOffset": 144548,
      "byteStride": 12,
      "name": "floatBufferViews",
      "target": 34962
    }
  ],
  "buffers": [
    {
      "byteLength": 276404,
      "uri": "scene.bin"
    }
  ],
  "extensionsUsed": [
    "KHR_materials_transmission"
  ],
  "materials": [
    {
      "alphaMode": "BLEND",
      "doubleSided": true,
      "extensions": {
        "KHR_materials_transmission": {
          "transmissionFactor": 0.7490028516012136
        }
      },
      "name": "Bottle.001",
      "pbrMetallicRoughness": {
        "baseColorFactor": [
          0.507736798603421,
          0.5847916368233581,
          0.6698186081563328,
          0.2509971483987864
        ],
        "metallicFactor": 0.5914868455453611,
        "roughnessFactor": 0.09291264615216242
      }
    },
    {
      "alphaMode": "BLEND",
      "doubleSided": true,
      "name": "Material.001",
      "pbrMetallicRoughness": {
        "baseColorFactor": [
          0.6912592433859023,
          0.8116312582068155,
          1.0,
          0.6218877113620196
        ],
        "metallicFactor": 0.4090816506454104,
        "roughnessFactor": 0.0
      }
    }
  ],
  "meshes": [
    {
      "name": "Object_0",
      "primitives": [
        {
          "attributes": {
            "NORMAL": 1,
            "POSITION": 0,
            "TEXCOORD_0": 2
          },
          "indices": 3,
          "material": 0,
          "mode": 4
        }
      ]
    },
    {
      "name": "Object_1",
      "primitives": [
        {
          "attributes": {
            "NORMAL": 5,
            "POSITION": 4,
            "TEXCOORD_0": 6
          },
          "indices": 7,
          "material": 1,
          "mode": 4
        }
      ]
    }
  ],
  "nodes": [
    {
      "children": [
        1
      ],
      "matrix": [
        1.0,
        0.0,
        0.0,
        0.0,
        0.0,
        2.220446049250313e-16,
        -1.0,
        0.0,
        0.0,
        1.0,
        2.220446049250313e-16,
        0.0,
        0.0,
        0.0,
        0.0,
        1.0
      ],
      "name": "Sketchfab_model"
    },
    {
      "children": [
        2
      ],
      "name": "root"
    },
    {
      "children": [
        3
      ],
      "matrix": [
        1.0,
        0.0,
        0.0,
        0.0,
        0.0,
        2.220446049250313e-16,
        1.0,
        0.0,
        0.0,
        -1.0,
        2.220446049250313e-16,
        0.0,
        0.0,
        0.0,
        0.0,
        1.0
      ],
      "name": "GLTF_SceneRootNode"
    },
    {
      "children": [
        4,
        5
      ],
      "matrix": [
        0.3473411214231683,
        0.0,
        -0.9377388471042969,
        0.0,
        0.0,
        1.0,
        0.0,
        0.0,
        0.9377388471042969,
        0.0,
        0.3473411214231683,
        0.0,
        0.0,
        1.2177983522415161,
        0.0,
        1.0
      ],
      "name": "Sphere.001_1"
    },
    {
      "mesh": 0,
      "name": "Object_4"
    },
    {
      "children": [
        6
      ],
      "matrix": [
        0.9672879576683044,
        0.0,
        0.0,
        0.0,
        0.0,
        0.9672879576683044,
        0.0,
        0.0,
        0.0,
        0.0,
        0.9672879576683044,
        0.0,
        0.0,
        0.0,
        0.0,
        1.0
      ],
      "name": "Sphere.002_0"
    },
    {
      "mesh": 1,
      "name": "Object_6"
    }
  ],
  "scene": 0,
  "scenes": [
    {
      "name": "Sketchfab_Scene",
      "nodes": [
        0
      ]
    }
  ]
}
